name analog
datacolumns 19
datarows 70
range 0.3375 0.372
endheader
time	ground_force_vx	ground_force_vy	ground_force_vz	ground_force_px	ground_force_py	ground_force_pz	l_ground_force_vx	l_ground_force_vy	l_ground_force_vz	l_ground_force_px	l_ground_force_py	l_ground_force_pz	ground_torque_x	ground_torque_y	ground_torque_z	l_ground_torque_x	l_ground_torque_y	l_ground_torque_z
0.3375	-0.0	-0.0	-0.0	-0.0	-0.0	-0.0	2.905142068862915	-3.975018262863159	-875.9357299804688	-0.0	-0.0	-0.0	-0.0	-0.0	-0.0	303960.71875	-24732.28515625	119.5304718017578
0.338	-0.0	-0.0	-0.0	-0.0	-0.0	-0.0	2.3509883880615234	-3.974172115325928	-873.2281494140625	-0.0	-0.0	-0.0	-0.0	-0.0	-0.0	303149.90625	-24633.072265625	119.21670532226562
0.3385	-0.0	-0.0	-0.0	-0.0	-0.0	-0.0	1.9295459985733032	-3.95225191116333	-873.926025390625	-0.0	-0.0	-0.0	-0.0	-0.0	-0.0	303165.59375	-24409.0859375	-147.9517822265625
0.339	-0.0	-0.0	-0.0	-0.0	-0.0	-0.0	1.552351474761963	-2.914615631103516	-873.053955078125	-0.0	-0.0	-0.0	-0.0	-0.0	-0.0	303156.96875	-24182.9140625	-363.0061645507813
0.3395	-0.0	-0.0	-0.0	-0.0	-0.0	-0.0	1.729311227798462	-1.612144112586975	-872.5285034179688	-0.0	-0.0	-0.0	-0.0	-0.0	-0.0	303266.03125	-24275.123046875	-384.8120727539063
0.34	-0.0	-0.0	-0.0	-0.0	-0.0	-0.0	2.128452777862549	-1.0598602294921875	-872.0916137695312	-0.0	-0.0	-0.0	-0.0	-0.0	-0.0	303632.0	-24107.572265625	-450.8787536621094
0.3405	-0.0	-0.0	-0.0	-0.0	-0.0	-0.0	2.1738622188568115	-0.5736449956893921	-870.69775390625	-0.0	-0.0	-0.0	-0.0	-0.0	-0.0	303026.5	-24207.904296875	-666.4899291992188
0.341	-0.0	-0.0	-0.0	-0.0	-0.0	-0.0	1.41937255859375	-1.2801238298416138	-867.9047241210938	-0.0	-0.0	-0.0	-0.0	-0.0	-0.0	302057.15625	-23958.88671875	-807.5700073242188
0.3415	-0.0	-0.0	-0.0	-0.0	-0.0	-0.0	1.1736983060836792	-1.214765548706055	-863.6292724609375	-0.0	-0.0	-0.0	-0.0	-0.0	-0.0	300712.0625	-23669.28125	-778.039794921875
0.342	-0.0	-0.0	-0.0	-0.0	-0.0	-0.0	1.310502290725708	-1.723076581954956	-859.0906982421875	-0.0	-0.0	-0.0	-0.0	-0.0	-0.0	299237.0	-23562.0546875	-829.558837890625
0.3425	-0.0	-0.0	-0.0	-0.0	-0.0	-0.0	1.0609185695648191	-1.609623908996582	-854.9012451171875	-0.0	-0.0	-0.0	-0.0	-0.0	-0.0	297973.59375	-23327.8671875	-822.3786010742188
0.343	-0.0	-0.0	-0.0	-0.0	-0.0	-0.0	1.2636048793792725	-1.9882808923721316	-852.3643188476562	-0.0	-0.0	-0.0	-0.0	-0.0	-0.0	296804.625	-23155.66015625	-823.6592407226562
0.3435	-0.0	-0.0	-0.0	-0.0	-0.0	-0.0	1.5706164836883545	-1.4991929531097412	-849.1456909179688	-0.0	-0.0	-0.0	-0.0	-0.0	-0.0	295983.21875	-23111.041015625	-667.85107421875
0.34400000000000003	-0.0	-0.0	-0.0	-0.0	-0.0	-0.0	1.464990258216858	-1.4635918140411377	-847.9296264648438	-0.0	-0.0	-0.0	-0.0	-0.0	-0.0	295550.53125	-22940.939453125	-703.2176513671875
0.34450000000000003	-0.0	-0.0	-0.0	-0.0	-0.0	-0.0	1.5080833435058594	-0.5057480931282043	-845.115966796875	-0.0	-0.0	-0.0	-0.0	-0.0	-0.0	294783.3125	-22968.99609375	-755.95947265625
0.34500000000000003	-0.0	-0.0	-0.0	-0.0	-0.0	-0.0	1.266382098197937	0.0029914379119873	-841.5278930664062	-0.0	-0.0	-0.0	-0.0	-0.0	-0.0	294094.65625	-22926.947265625	-882.859619140625
0.34550000000000003	-0.0	-0.0	-0.0	-0.0	-0.0	-0.0	0.7983970642089844	0.0179804787039756	-839.3734130859375	-0.0	-0.0	-0.0	-0.0	-0.0	-0.0	293767.15625	-23027.70703125	-1008.0048828125
0.34600000000000003	-0.0	-0.0	-0.0	-0.0	-0.0	-0.0	0.8871078491210938	0.2437643259763717	-836.6649780273438	-0.0	-0.0	-0.0	-0.0	-0.0	-0.0	292823.625	-22874.69921875	-979.4022827148438
0.34650000000000003	-0.0	-0.0	-0.0	-0.0	-0.0	-0.0	1.4406193494796753	0.4453157186508178	-832.6429443359375	-0.0	-0.0	-0.0	-0.0	-0.0	-0.0	291985.8125	-22772.9140625	-935.1472778320312
0.34700000000000003	-0.0	-0.0	-0.0	-0.0	-0.0	-0.0	1.5504320859909058	1.0176973342895508	-831.42919921875	-0.0	-0.0	-0.0	-0.0	-0.0	-0.0	291639.15625	-22969.345703125	-816.4129638671875
0.34750000000000003	-0.0	-0.0	-0.0	-0.0	-0.0	-0.0	1.9938907623291016	1.3921128511428833	-828.5367431640625	-0.0	-0.0	-0.0	-0.0	-0.0	-0.0	291355.5	-22685.037109375	-769.493408203125
0.34800000000000003	-0.0	-0.0	-0.0	-0.0	-0.0	-0.0	1.9305704832077024	1.8757297992706297	-826.8084716796875	-0.0	-0.0	-0.0	-0.0	-0.0	-0.0	290664.375	-22794.341796875	-821.6990966796875
0.34850000000000003	-0.0	-0.0	-0.0	-0.0	-0.0	-0.0	1.9259095191955569	2.20804214477539	-823.7498779296875	-0.0	-0.0	-0.0	-0.0	-0.0	-0.0	289785.6875	-22966.9296875	-891.15625
0.34900000000000003	-0.0	-0.0	-0.0	-0.0	-0.0	-0.0	2.4629552364349365	2.6705055236816406	-820.8361206054688	-0.0	-0.0	-0.0	-0.0	-0.0	-0.0	289195.15625	-22726.26953125	-664.1876831054688
0.34950000000000003	-0.0	-0.0	-0.0	-0.0	-0.0	-0.0	2.9744181632995605	3.512084722518921	-817.7747192382812	-0.0	-0.0	-0.0	-0.0	-0.0	-0.0	288338.6875	-23026.734375	-635.64111328125
0.35000000000000003	-0.0	-0.0	-0.0	-0.0	-0.0	-0.0	3.506802797317505	3.891583681106568	-816.2560424804688	-0.0	-0.0	-0.0	-0.0	-0.0	-0.0	287683.40625	-23302.154296875	-441.4780883789063
0.35050000000000003	-0.0	-0.0	-0.0	-0.0	-0.0	-0.0	4.320418834686279	4.036503791809082	-815.9078369140625	-0.0	-0.0	-0.0	-0.0	-0.0	-0.0	287593.5	-23493.580078125	-34.39726638793945
0.35100000000000003	-0.0	-0.0	-0.0	-0.0	-0.0	-0.0	5.275325298309326	4.525009632110596	-813.174072265625	-0.0	-0.0	-0.0	-0.0	-0.0	-0.0	287553.3125	-23687.826171875	114.6534652709961
0.35150000000000003	-0.0	-0.0	-0.0	-0.0	-0.0	-0.0	5.425821304321289	5.252068042755127	-813.0928344726562	-0.0	-0.0	-0.0	-0.0	-0.0	-0.0	287031.03125	-23751.26953125	331.4972839355469
0.352	-0.0	-0.0	-0.0	-0.0	-0.0	-0.0	5.7804274559021	5.408120155334473	-810.9171752929688	-0.0	-0.0	-0.0	-0.0	-0.0	-0.0	286684.90625	-23776.88671875	254.4385223388672
0.3525	-0.0	-0.0	-0.0	-0.0	-0.0	-0.0	5.500068664550781	5.747530937194824	-809.4949951171875	-0.0	-0.0	-0.0	-0.0	-0.0	-0.0	285883.53125	-23667.73046875	413.80804443359375
0.353	-0.0	-0.0	-0.0	-0.0	-0.0	-0.0	6.339401245117188	5.734099388122559	-807.0504760742188	-0.0	-0.0	-0.0	-0.0	-0.0	-0.0	285628.6875	-23952.880859375	603.802734375
0.3535	-0.0	-0.0	-0.0	-0.0	-0.0	-0.0	6.837860584259033	5.768313884735107	-806.2191772460938	-0.0	-0.0	-0.0	-0.0	-0.0	-0.0	285448.53125	-23997.220703125	784.4132080078125
0.354	-0.0	-0.0	-0.0	-0.0	-0.0	-0.0	7.137533664703369	5.556929588317871	-805.65283203125	-0.0	-0.0	-0.0	-0.0	-0.0	-0.0	284992.21875	-24020.876953125	926.0728759765624
0.3545	-0.0	-0.0	-0.0	-0.0	-0.0	-0.0	7.1374382972717285	5.387622833251953	-804.2057495117188	-0.0	-0.0	-0.0	-0.0	-0.0	-0.0	284372.1875	-24169.126953125	1074.3499755859375
0.355	-0.0	-0.0	-0.0	-0.0	-0.0	-0.0	7.2540693283081055	5.503886699676514	-799.4158325195312	-0.0	-0.0	-0.0	-0.0	-0.0	-0.0	283300.59375	-24169.08984375	1225.40771484375
0.3555	-0.0	-0.0	-0.0	-0.0	-0.0	-0.0	7.834794044494629	4.809504508972168	-798.7477416992188	-0.0	-0.0	-0.0	-0.0	-0.0	-0.0	282759.5	-24150.5625	1405.0380859375
0.356	-0.0	-0.0	-0.0	-0.0	-0.0	-0.0	8.209887504577637	4.749351501464844	-795.716552734375	-0.0	-0.0	-0.0	-0.0	-0.0	-0.0	281830.34375	-23977.140625	1797.56640625
0.3565	-0.0	-0.0	-0.0	-0.0	-0.0	-0.0	8.624980926513672	4.102692127227783	-792.3489990234375	-0.0	-0.0	-0.0	-0.0	-0.0	-0.0	280754.09375	-23954.947265625	1958.30322265625
0.357	-0.0	-0.0	-0.0	-0.0	-0.0	-0.0	8.831103324890137	3.738133192062378	-790.2874755859375	-0.0	-0.0	-0.0	-0.0	-0.0	-0.0	279484.21875	-23846.517578125	2186.072021484375
0.3575	-0.0	-0.0	-0.0	-0.0	-0.0	-0.0	8.693656921386719	3.541878700256348	-787.066162109375	-0.0	-0.0	-0.0	-0.0	-0.0	-0.0	278479.34375	-23731.515625	2462.53857421875
0.358	-0.0	-0.0	-0.0	-0.0	-0.0	-0.0	9.26565647125244	3.1689999103546143	-784.1163940429688	-0.0	-0.0	-0.0	-0.0	-0.0	-0.0	277484.9375	-23469.04296875	2759.506591796875
0.3585	-0.0	-0.0	-0.0	-0.0	-0.0	-0.0	9.70909023284912	2.8262939453125	-782.3707885742188	-0.0	-0.0	-0.0	-0.0	-0.0	-0.0	276967.8125	-23496.248046875	2950.986328125
0.359	-0.0	-0.0	-0.0	-0.0	-0.0	-0.0	10.004583358764648	2.561328887939453	-781.3236694335938	-0.0	-0.0	-0.0	-0.0	-0.0	-0.0	276299.71875	-23441.447265625	3175.21875
0.3595	-0.0	-0.0	-0.0	-0.0	-0.0	-0.0	9.965256690979004	2.080518245697021	-779.7340087890625	-0.0	-0.0	-0.0	-0.0	-0.0	-0.0	275672.40625	-23301.86328125	3181.66796875
0.36	-0.0	-0.0	-0.0	-0.0	-0.0	-0.0	9.827269554138184	2.0509402751922607	-777.637939453125	-0.0	-0.0	-0.0	-0.0	-0.0	-0.0	275093.1875	-22948.041015625	3039.805419921875
0.3605	-0.0	-0.0	-0.0	-0.0	-0.0	-0.0	9.098100662231444	1.7170506715774536	-775.81494140625	-0.0	-0.0	-0.0	-0.0	-0.0	-0.0	273994.96875	-22833.962890625	2956.724609375
0.361	-0.0	-0.0	-0.0	-0.0	-0.0	-0.0	8.635133743286133	1.5403131246566772	-774.1112060546875	-0.0	-0.0	-0.0	-0.0	-0.0	-0.0	273328.78125	-22362.091796875	2956.31884765625
0.3615	-0.0	-0.0	-0.0	-0.0	-0.0	-0.0	7.964535236358643	0.8638668060302734	-769.726318359375	-0.0	-0.0	-0.0	-0.0	-0.0	-0.0	272197.3125	-22025.76171875	2876.796630859375
0.362	-0.0	-0.0	-0.0	-0.0	-0.0	-0.0	7.925843715667725	0.5187709927558899	-767.0540161132812	-0.0	-0.0	-0.0	-0.0	-0.0	-0.0	271092.3125	-21763.212890625	2850.785400390625
0.3625	-0.0	-0.0	-0.0	-0.0	-0.0	-0.0	7.69851016998291	0.3917731642723083	-765.4924926757812	-0.0	-0.0	-0.0	-0.0	-0.0	-0.0	270108.0625	-21427.14453125	2862.43701171875
0.363	-0.0	-0.0	-0.0	-0.0	-0.0	-0.0	7.39393949508667	-0.0191710740327835	-763.67041015625	-0.0	-0.0	-0.0	-0.0	-0.0	-0.0	269342.96875	-21178.83984375	2882.665283203125
0.3635	-0.0	-0.0	-0.0	-0.0	-0.0	-0.0	7.482830047607422	-0.3104230761528015	-762.046875	-0.0	-0.0	-0.0	-0.0	-0.0	-0.0	269056.28125	-20961.98046875	2954.820556640625
0.364	-0.0	-0.0	-0.0	-0.0	-0.0	-0.0	7.578712463378906	-0.3412210047245025	-762.4717407226562	-0.0	-0.0	-0.0	-0.0	-0.0	-0.0	269038.625	-20665.740234375	2948.4462890625
0.3645	-0.0	-0.0	-0.0	-0.0	-0.0	-0.0	7.907668590545654	-0.4416084289550781	-761.8226318359375	-0.0	-0.0	-0.0	-0.0	-0.0	-0.0	269015.40625	-20905.470703125	3124.38525390625
0.365	-0.0	-0.0	-0.0	-0.0	-0.0	-0.0	8.338813781738281	-0.2649650573730469	-762.9711303710938	-0.0	-0.0	-0.0	-0.0	-0.0	-0.0	269431.0	-20972.6953125	3381.200927734375
0.3655	-0.0	-0.0	-0.0	-0.0	-0.0	-0.0	8.744457244873047	0.8266007900238037	-763.7437744140625	-0.0	-0.0	-0.0	-0.0	-0.0	-0.0	269833.34375	-21091.3203125	3498.1650390625
0.366	-0.0	-0.0	-0.0	-0.0	-0.0	-0.0	9.193896293640137	1.5014686584472656	-763.8176879882812	-0.0	-0.0	-0.0	-0.0	-0.0	-0.0	270220.375	-21057.802734375	3704.21630859375
0.3665	-0.0	-0.0	-0.0	-0.0	-0.0	-0.0	9.492053985595703	1.6030513048171997	-765.8903198242188	-0.0	-0.0	-0.0	-0.0	-0.0	-0.0	270550.34375	-20982.4609375	3668.43994140625
0.367	-0.0	-0.0	-0.0	-0.0	-0.0	-0.0	9.604706764221191	1.552404284477234	-765.212890625	-0.0	-0.0	-0.0	-0.0	-0.0	-0.0	270906.5625	-21397.828125	3710.67919921875
0.3675	-0.0	-0.0	-0.0	-0.0	-0.0	-0.0	9.96817111968994	1.7291665077209473	-765.1929931640625	-0.0	-0.0	-0.0	-0.0	-0.0	-0.0	271167.375	-21206.7265625	3971.620849609375
0.368	-0.0	-0.0	-0.0	-0.0	-0.0	-0.0	10.290451049804688	2.1011340618133545	-766.2408447265625	-0.0	-0.0	-0.0	-0.0	-0.0	-0.0	271109.53125	-21047.904296875	4000.012451171875
0.3685	-0.0	-0.0	-0.0	-0.0	-0.0	-0.0	10.075838088989258	2.230806589126587	-765.4699096679688	-0.0	-0.0	-0.0	-0.0	-0.0	-0.0	270910.34375	-21063.005859375	4106.1611328125
0.369	-0.0	-0.0	-0.0	-0.0	-0.0	-0.0	9.968673706054688	2.226509094238281	-763.3184814453125	-0.0	-0.0	-0.0	-0.0	-0.0	-0.0	270551.125	-20870.634765625	3888.789794921875
0.3695	-0.0	-0.0	-0.0	-0.0	-0.0	-0.0	9.706427574157717	2.2116947174072266	-763.9437255859375	-0.0	-0.0	-0.0	-0.0	-0.0	-0.0	270538.4375	-20839.015625	3785.927490234375
0.37	-0.0	-0.0	-0.0	-0.0	-0.0	-0.0	8.874448776245117	2.238002300262451	-763.2454833984375	-0.0	-0.0	-0.0	-0.0	-0.0	-0.0	270734.40625	-20814.984375	3625.892822265625
0.3705	-0.0	-0.0	-0.0	-0.0	-0.0	-0.0	8.32044506072998	2.8294126987457275	-762.0657348632812	-0.0	-0.0	-0.0	-0.0	-0.0	-0.0	271026.1875	-20741.68359375	3346.387939453125
0.371	-0.0	-0.0	-0.0	-0.0	-0.0	-0.0	7.060270309448242	3.197796583175659	-762.96826171875	-0.0	-0.0	-0.0	-0.0	-0.0	-0.0	270995.3125	-20113.1171875	2966.119384765625
0.3715	-0.0	-0.0	-0.0	-0.0	-0.0	-0.0	6.40289306640625	3.054922103881836	-761.4378051757812	-0.0	-0.0	-0.0	-0.0	-0.0	-0.0	271070.125	-20276.5390625	2857.486572265625
0.372	-0.0	-0.0	-0.0	-0.0	-0.0	-0.0	5.449967384338379	3.3381152153015137	-763.3170776367188	-0.0	-0.0	-0.0	-0.0	-0.0	-0.0	271688.78125	-20202.142578125	2543.6669921875
